<!DOCTYPE svg PUBLIC "-//W3C//DTD SVG 1.1//EN" "http://www.w3.org/Graphics/SVG/1.1/DTD/svg11.dtd">
<!-- Uploaded to: SVG Repo, www.svgrepo.com, Transformed by: SVG Repo Mixer Tools -->
<svg version="1.1" id="Uploaded to svgrepo.com" xmlns="http://www.w3.org/2000/svg" xmlns:xlink="http://www.w3.org/1999/xlink" width="64px" height="64px" viewBox="0 0 32 32" xml:space="preserve" fill="#d053f3">
<g id="SVGRepo_bgCarrier" stroke-width="0"/>
<g id="SVGRepo_tracerCarrier" stroke-linecap="round" stroke-linejoin="round"/>
<g id="SVGRepo_iconCarrier"> <style type="text/css"> .bentblocks_een{fill:#d053f3;} </style> <path class="bentblocks_een" d="M26,8h-5V6c0-1.1-0.9-2-2-2h-6c-1.1,0-2,0.9-2,2v2H6c-1.1,0-2,0.9-2,2v16c0,1.1,0.9,2,2,2h20 c1.1,0,2-0.9,2-2V10C28,8.9,27.1,8,26,8z M13,6h6v2h-6V6z M17,10v6h-2v-6H17z M26,26H6v-3h20V26z M26,21H6V10h7v6c0,1.1,0.9,2,2,2h2 c1.1,0,2-0.9,2-2v-6h7V21z"/> </g>
</svg>